# xmcd CD database file
#
# Track frame offsets:
#	150
#	14745
#	29967
#	45595
#	65683
#	91910
#	106266
#	119712
#	143400
#	156744
#	173279
#	189728
#	205260
#
# Disc length: 2932 seconds
#
# Revision: 0
# Processed by: cddbd v1.4PL0 Copyright (c) Steve Scherf et al.
# Submitted via: CDex 1.50beta9
#
DISCID=bd0b720d
DTITLE=Cam Newton - Ipso Facto
DYEAR=2003
DGENRE=New Age
TTITLE0=Morning of the Gypsy King
TTITLE1=Hammock (for Jobim)
TTITLE2=Spring's Wings
TTITLE3=Baja Lite
TTITLE4=Ipso Facto
TTITLE5=Empty Rooms
TTITLE6=Christine's Wedding
TTITLE7=Voice in the Wilderness
TTITLE8=A Gentler Time
TTITLE9=Casting for the Big One
TTITLE10=Dipper's Prayer
TTITLE11=On the Upswing
TTITLE12=The Splendid Amplitude of it All
EXTD=YEAR: 2003
EXTT0=
EXTT1=
EXTT2=
EXTT3=
EXTT4=
EXTT5=
EXTT6=
EXTT7=
EXTT8=
EXTT9=
EXTT10=
EXTT11=
EXTT12=
PLAYORDER=
